<svg width="29" height="29" viewBox="0 0 29 29" fill="none" xmlns="http://www.w3.org/2000/svg">
<path d="M15.0116 18.9441H12.6584C12.6669 18.1984 12.7386 17.5886 12.8735 17.1147C13.0169 16.6331 13.2488 16.1942 13.5693 15.798C13.8898 15.4018 14.3157 14.9513 14.8471 14.4463C15.2351 14.0812 15.5893 13.7394 15.9098 13.4209C16.2387 13.0946 16.5044 12.7451 16.7068 12.3722C16.9092 11.9915 17.0104 11.5371 17.0104 11.0089C17.0104 10.4729 16.905 10.0106 16.6942 9.62224C16.4917 9.23382 16.1881 8.93475 15.7833 8.725C15.3869 8.51526 14.8935 8.41039 14.3031 8.41039C13.8139 8.41039 13.35 8.49196 12.9115 8.65509C12.4729 8.81822 12.1187 9.07069 11.8488 9.41249C11.5789 9.74653 11.4397 10.1854 11.4313 10.7292H9.09082C9.10769 9.8514 9.34384 9.09788 9.79928 8.46865C10.2632 7.83942 10.8873 7.35779 11.6717 7.02376C12.456 6.68972 13.3332 6.52271 14.3031 6.52271C15.3742 6.52271 16.2851 6.70137 17.0357 7.05871C17.7948 7.41605 18.3725 7.92876 18.7689 8.59683C19.1653 9.25713 19.3635 10.0417 19.3635 10.9506C19.3635 11.6497 19.2075 12.2945 18.8955 12.8849C18.5918 13.4675 18.1996 14.0152 17.7189 14.5279C17.2382 15.0406 16.7279 15.53 16.1881 15.9961C15.7242 16.3923 15.4122 16.8389 15.2519 17.3361C15.0917 17.8333 15.0116 18.3693 15.0116 18.9441Z" fill="white"/>
<path d="M12.6762 20.142V21.9318H15.0116V20.142H12.6762Z" fill="white"/>
<circle cx="14.2274" cy="14.2273" r="12.8409" stroke="white" stroke-width="2.56818"/>
</svg>
