<svg width="32" height="32" viewBox="0 0 32 32" fill="none" xmlns="http://www.w3.org/2000/svg">
<path d="M20.0795 10.7273H16.2272M12.375 18.4318H16.2272M16.2272 10.7273H15.4231C14.4488 10.7273 13.659 11.5171 13.659 12.4913V12.4913C13.659 13.3322 14.2526 14.0562 15.0771 14.2211L18.6614 14.938C19.486 15.1029 20.0795 15.8269 20.0795 16.6678V16.6678C20.0795 17.642 19.2897 18.4318 18.3154 18.4318H16.2272M16.2272 10.7273V8.1591M16.2272 18.4318V21M27.784 28.0625V8.1591C27.784 6.03155 26.0593 4.30682 23.9318 4.30682H8.52268C6.39513 4.30682 4.67041 6.03154 4.67041 8.1591V21C4.67041 23.1276 6.39513 24.8523 8.52268 24.8523H20.7573C21.156 24.8523 21.5492 24.9451 21.9059 25.1234L27.784 28.0625Z" stroke="white" stroke-width="2.56818"/>
</svg>
